<svg width="712" height="76" viewBox="0 0 712 76" fill="none" xmlns="http://www.w3.org/2000/svg">
<path d="M49.0726 18.0064L48.0664 31.2129L52.7645 31.5615L53.7708 18.355L49.0726 18.0064Z" fill="#46366C"/>
<path d="M26.8404 75.7972C14.2053 75.7972 3.56904 66.0052 2.71243 53.5364L0.142578 15.9185L4.85396 15.6367L7.42381 53.2546C8.13765 63.2579 16.6324 71.1477 26.8404 71.1477C37.0484 71.1477 36.4773 69.3162 40.0465 66.0052C42.6878 63.6101 44.6151 60.5105 45.5431 57.0586L50.1117 58.3267C48.8982 62.5534 46.5425 66.4279 43.2589 69.4571C38.7616 73.5429 32.9081 75.7972 26.8404 75.7972Z" fill="#46366C"/>
<path d="M26.7692 28.7413C15.0621 28.7413 5.21108 25.9234 1.57047 21.6262C0.571085 20.3582 0 19.0198 0 17.6108C0 10.355 13.4203 6.48047 26.6978 6.48047C39.9754 6.48047 53.3956 10.2845 53.3956 17.6108C53.3956 24.9372 39.9754 28.7413 26.6978 28.7413H26.7692ZM26.7692 11.2003C12.4923 11.2003 4.78277 15.4271 4.78277 17.6813C4.78277 19.9356 4.92555 18.3153 5.28247 18.738C7.49539 21.4149 15.6332 24.1623 26.8406 24.1623C38.048 24.1623 48.8984 19.9356 48.8984 17.6813C48.8984 15.4271 41.1175 11.2003 26.8406 11.2003H26.7692Z" fill="#46366C"/>
<path d="M51.2535 60.4423C49.8972 60.4423 48.5409 60.3014 47.256 59.9491L44.9717 59.3856L45.6142 57.1313C45.9711 55.9337 46.1852 54.6657 46.2566 53.4681L48.1126 29.094L50.1114 28.9531C50.4683 28.9531 50.8966 28.9531 51.2535 28.9531C60.1052 28.9531 67.315 36.0681 67.315 44.8034C67.315 53.5386 60.1052 60.6536 51.2535 60.6536V60.4423ZM50.6824 55.7928C50.8966 55.7928 51.0394 55.7928 51.2535 55.7928C57.464 55.7928 62.6037 50.7912 62.6037 44.592C62.6037 38.3928 58.1778 34.0956 52.4671 33.4616L50.968 53.6795C50.968 54.3839 50.8252 55.0179 50.7539 55.7224L50.6824 55.7928Z" fill="#46366C"/>
<path d="M609.298 18.0103L608.292 31.2168L612.99 31.5654L613.996 18.3589L609.298 18.0103Z" fill="#46366C"/>
<path d="M586.639 75.7972C574.004 75.7972 563.368 66.0052 562.511 53.5364L559.941 15.9185L564.653 15.6367L567.223 53.2546C567.937 63.2579 576.431 71.1477 586.639 71.1477C596.847 71.1477 596.276 69.3162 599.845 66.0052C602.487 63.6101 604.414 60.5105 605.342 57.0586L609.911 58.3267C608.697 62.5534 606.341 66.4279 603.058 69.4571C598.56 73.5429 592.707 75.7972 586.639 75.7972Z" fill="#46366C"/>
<path d="M586.567 28.7413C574.86 28.7413 565.009 25.9234 561.368 21.6262C560.369 20.3582 559.798 19.0198 559.798 17.6108C559.798 10.355 573.218 6.48047 586.496 6.48047C599.773 6.48047 613.194 10.2845 613.194 17.6108C613.194 24.9372 599.773 28.7413 586.496 28.7413H586.567ZM586.567 11.2003C572.29 11.2003 564.581 15.4271 564.581 17.6813C564.581 19.9356 564.723 18.3153 565.08 18.738C567.293 21.4149 575.431 24.1623 586.638 24.1623C597.846 24.1623 608.625 19.9356 608.625 17.6813C608.625 15.4271 600.844 11.2003 586.638 11.2003H586.567Z" fill="#46366C"/>
<path d="M611.052 60.4423C609.696 60.4423 608.34 60.3014 607.055 59.9491L604.771 59.3856L605.413 57.1313C605.77 55.9337 605.984 54.6657 606.055 53.4681L607.911 29.094L609.91 28.9531C610.267 28.9531 610.695 28.9531 611.052 28.9531C619.904 28.9531 627.114 36.0681 627.114 44.8034C627.114 53.5386 619.904 60.6536 611.052 60.6536V60.4423ZM610.481 55.7928C610.695 55.7928 610.838 55.7928 611.052 55.7928C617.263 55.7928 622.402 50.7912 622.402 44.592C622.402 38.3928 617.977 34.0956 612.266 33.4616L610.767 53.6795C610.767 54.3839 610.624 55.0179 610.553 55.7224L610.481 55.7928Z" fill="#46366C"/>
<path d="M110.505 75.7995C90.7314 75.7995 74.6699 59.9493 74.6699 40.4359C74.6699 20.9225 90.7314 5.07227 110.505 5.07227C130.278 5.07227 146.34 20.9225 146.34 40.4359C146.34 59.9493 130.278 75.7995 110.505 75.7995ZM110.505 9.72167C93.3726 9.72167 79.3813 23.529 79.3813 40.4359C79.3813 57.3428 93.3726 71.1501 110.505 71.1501C127.637 71.1501 141.629 57.3428 141.629 40.4359C141.629 23.529 127.637 9.72167 110.505 9.72167Z" fill="#46366C"/>
<path d="M110.504 62.2033C98.2973 62.2033 88.4463 52.4114 88.4463 40.4356C88.4463 28.4599 98.3687 18.668 110.504 18.668C122.639 18.668 132.562 28.4599 132.562 40.4356C132.562 52.4114 122.639 62.2033 110.504 62.2033ZM110.504 23.2469C100.939 23.2469 93.1577 30.9255 93.1577 40.3652C93.1577 49.8049 100.939 57.4834 110.504 57.4834C120.07 57.4834 127.851 49.8049 127.851 40.3652C127.851 30.9255 120.07 23.2469 110.504 23.2469Z" fill="#46366C"/>
<path d="M441.871 75.7995C422.098 75.7995 406.036 59.9493 406.036 40.4359C406.036 20.9225 422.098 5.07227 441.871 5.07227C461.645 5.07227 477.706 20.9225 477.706 40.4359C477.706 59.9493 461.645 75.7995 441.871 75.7995ZM441.871 9.72167C424.739 9.72167 410.747 23.529 410.747 40.4359C410.747 57.3428 424.739 71.1501 441.871 71.1501C459.003 71.1501 472.995 57.3428 472.995 40.4359C472.995 23.529 459.003 9.72167 441.871 9.72167Z" fill="#46366C"/>
<path d="M441.87 62.2033C429.664 62.2033 419.812 52.4114 419.812 40.4356C419.812 28.4599 429.735 18.668 441.87 18.668C454.006 18.668 463.928 28.4599 463.928 40.4356C463.928 52.4114 454.006 62.2033 441.87 62.2033ZM441.87 23.2469C432.305 23.2469 424.524 30.9255 424.524 40.3652C424.524 49.8049 432.305 57.4834 441.87 57.4834C451.436 57.4834 459.217 49.8049 459.217 40.3652C459.217 30.9255 451.436 23.2469 441.87 23.2469Z" fill="#46366C"/>
<path d="M190.24 75.8003H187.884C168.896 75.8003 153.405 60.5841 153.405 41.7752C153.405 22.9662 168.824 7.75 187.884 7.75H190.24V75.7298V75.8003ZM185.528 12.5403C170.252 13.7379 158.117 26.4181 158.117 41.7752C158.117 57.1323 170.181 69.8125 185.528 71.01V12.4698V12.5403Z" fill="#46366C"/>
<path d="M201.161 75.8002H198.806V7.82031H201.161C220.15 7.82031 235.64 23.0365 235.64 41.8455C235.64 60.6544 220.221 75.8706 201.161 75.8706V75.8002ZM203.517 12.5401V71.0803C218.793 69.8828 230.929 57.2026 230.929 41.8455C230.929 26.4884 218.865 13.7377 203.517 12.6106V12.5401Z" fill="#46366C"/>
<path d="M549.662 34.0956H485.202V31.7709C485.202 14.23 499.622 0 517.397 0C535.171 0 549.591 14.23 549.591 31.7709V34.0956H549.662ZM490.056 29.4462H544.88C543.666 15.5685 531.816 4.6494 517.468 4.6494C503.12 4.6494 491.27 15.5685 490.056 29.4462Z" fill="#46366C"/>
<path d="M517.467 75.8007C499.692 75.8007 485.272 61.5707 485.272 44.0298V41.7051H549.733V44.0298C549.733 61.5707 535.313 75.8007 517.538 75.8007H517.467ZM490.055 46.284C491.269 60.1618 503.119 71.0808 517.467 71.0808C531.815 71.0808 543.665 60.1618 544.879 46.284H490.055Z" fill="#46366C"/>
<path d="M281.113 75.7995C277.829 75.7995 274.545 73.8974 271.976 72.3476C271.476 72.0658 270.976 71.784 270.476 71.5023C266.122 69.1071 262.124 66.3597 258.555 63.401C250.275 56.4974 244.707 48.3962 242.422 40.0836C240.138 31.6301 241.566 19.3022 250.132 12.2576C254.344 8.80581 260.054 7.11513 265.408 7.81958C272.261 8.66493 276.687 12.9621 280.899 17.1888C285.039 10.7078 293.248 6.90377 301.029 7.89001C312.165 9.36936 318.59 19.4431 319.946 28.1783C320.089 29.235 320.231 30.2917 320.231 31.4188C320.517 40.9994 315.663 51.4253 306.811 59.9492C301.243 65.3735 293.962 70.3047 284.468 75.0245C283.326 75.5881 282.184 75.7995 281.041 75.7995H281.113ZM263.195 12.2576C259.626 12.2576 255.985 13.5257 253.273 15.7799C246.634 21.2747 245.135 31.5597 247.062 38.8156C249.061 46.2124 254.129 53.4682 261.696 59.8083C264.98 62.5557 268.763 65.1622 272.904 67.4164C273.403 67.6982 273.903 67.98 274.474 68.3322C277.115 69.882 280.399 71.8545 282.469 70.7978C291.464 66.2893 298.388 61.6399 303.599 56.5679C311.451 48.9597 315.806 39.8018 315.591 31.4892C315.591 30.5734 315.449 29.6577 315.377 28.8123C314.307 21.6973 309.238 13.5961 300.529 12.3985C294.533 11.6236 288.108 14.6528 284.896 19.7248C283.254 22.3313 281.47 22.5427 280.256 22.1904C279.328 21.9086 278.686 21.3451 278.4 20.9929L277.829 20.4293C273.832 16.4139 270.334 12.9621 265.051 12.3281C264.48 12.2576 263.838 12.1872 263.267 12.1872L263.195 12.2576Z" fill="#46366C"/>
<path d="M672.87 75.7995C669.586 75.7995 666.302 73.8974 663.732 72.3476C663.233 72.0658 662.733 71.784 662.233 71.5023C657.879 69.1071 653.881 66.3597 650.312 63.401C642.032 56.4974 636.463 48.3962 634.179 40.0836C631.895 31.6301 633.323 19.3022 641.889 12.2576C646.1 8.80581 651.811 7.11513 657.165 7.81958C664.018 8.66493 668.444 12.9621 672.655 17.1888C676.796 10.7078 685.005 6.90377 692.786 7.89001C703.922 9.36936 710.347 19.4431 711.703 28.1783C711.846 29.235 711.988 30.2917 711.988 31.4188C712.274 40.9994 707.42 51.4253 698.568 59.9492C693 65.3735 685.719 70.3047 676.225 75.0245C675.083 75.5881 673.94 75.7995 672.798 75.7995H672.87ZM654.881 12.2576C651.311 12.2576 647.671 13.5257 644.958 15.7799C638.32 21.2747 636.82 31.5597 638.748 38.8156C640.747 46.2124 645.815 53.4682 653.382 59.8083C656.665 62.5557 660.449 65.1622 664.589 67.4164C665.089 67.6982 665.588 67.98 666.159 68.3322C668.801 69.882 672.084 71.8545 674.155 70.7978C683.149 66.2893 690.073 61.6399 695.284 56.5679C703.137 48.9597 707.491 39.8018 707.277 31.4892C707.277 30.5734 707.134 29.6577 707.063 28.8123C705.992 21.6973 700.924 13.5961 692.215 12.3985C686.219 11.6236 679.794 14.6528 676.582 19.7248C674.94 22.3313 673.155 22.5427 671.942 22.1904C671.014 21.9086 670.371 21.3451 670.086 20.9929L669.515 20.4293C665.517 16.4139 662.019 12.9621 656.737 12.3281C656.166 12.2576 655.523 12.1872 654.952 12.1872L654.881 12.2576Z" fill="#46366C"/>
<path d="M363.133 75.7996C342.789 75.7996 326.228 59.4563 326.228 39.3793C326.228 19.3023 342.789 2.95898 363.133 2.95898C383.478 2.95898 400.039 19.3023 400.039 39.3793C400.039 59.4563 383.478 75.7996 363.133 75.7996ZM363.133 7.53794C345.359 7.53794 330.939 21.7679 330.939 39.3089C330.939 56.8498 345.359 71.0798 363.133 71.0798C380.908 71.0798 395.328 56.8498 395.328 39.3089C395.328 21.7679 380.908 7.53794 363.133 7.53794Z" fill="#46366C"/>
<path d="M349.071 31.4178C349.071 29.7271 350.428 28.3887 352.141 28.3887C353.854 28.3887 355.21 29.7271 355.21 31.4178C355.21 33.1085 353.854 34.447 352.141 34.447C350.428 34.447 349.071 33.1085 349.071 31.4178Z" fill="#46366C"/>
<path d="M371.129 31.4178C371.129 29.7271 372.485 28.3887 374.198 28.3887C375.912 28.3887 377.268 29.7271 377.268 31.4178C377.268 33.1085 375.912 34.447 374.198 34.447C372.485 34.447 371.129 33.1085 371.129 31.4178Z" fill="#46366C"/>
<path d="M363.134 60.8652C353.497 60.8652 345.145 54.8069 342.29 45.7195L346.787 44.3105C349 51.4255 355.568 56.1454 363.134 56.1454C370.701 56.1454 377.268 51.3551 379.481 44.3105L383.979 45.7195C381.123 54.7365 372.771 60.8652 363.134 60.8652Z" fill="#46366C"/>
</svg>
