<svg width="373" height="444" viewBox="0 0 373 444" fill="none" xmlns="http://www.w3.org/2000/svg">
<path d="M166.602 1.83245C166.704 0.934977 166.756 -0.597342 168.08 0.243544C168.324 1.33856 168.233 2.46525 168.3 3.57693C168.413 9.00066 169.607 14.3084 170.425 19.6497C174.129 39.9365 179.164 59.9529 184.625 79.8307C190.122 99.9455 195.94 119.977 202.004 139.935C204.062 146.448 206.01 153.002 208.306 159.441C210.133 164.716 212.45 169.798 214.653 174.924C219.207 185.516 223.68 196.143 227.832 206.897C231.32 215.788 234.649 224.749 237.354 233.911C240.862 245.49 243.984 257.178 247.416 268.776C249.151 274.815 251.441 280.665 253.438 286.614C249.542 267.644 247.803 248.272 247.809 228.912C247.634 191.498 253.545 154.404 260.699 117.786C264.176 100.069 267.739 82.3445 269.94 64.4138C270.989 55.8762 271.874 47.3167 272.345 38.7298C272.849 29.9484 272.945 21.1554 273.245 12.3694C273.342 10.7237 273.12 9.03619 273.64 7.4378C274.406 7.54478 274.781 7.96401 274.754 8.69702C274.658 18.4142 274.256 28.1255 274.035 37.8432C273.981 48.5403 274.71 59.2376 275.886 69.8681C276.759 77.1803 277.01 84.5403 277.51 91.8815C278.958 120.372 278.726 148.912 278.023 177.419C277.668 188.193 277.456 198.98 276.606 209.73C279.396 201.81 282.431 193.98 285.734 186.259C290.095 176.338 294.796 166.484 301.106 157.629C310.146 144.603 321.704 133.659 332.816 122.45C339.214 116.006 345.427 109.292 350.405 101.668C353.451 96.6856 356.286 91.1502 356.03 85.1389C356.315 85.2454 356.893 85.4614 357.181 85.5723C358.811 93.1597 357.665 100.973 356.297 108.508C353.463 122.458 348.453 135.87 342.611 148.817C338.734 157.311 334.327 165.564 329.371 173.481C325.306 180.29 320.588 186.68 316.249 193.317C313.707 197.129 312.05 201.417 310.276 205.619C302.806 223.138 296.763 241.248 291.863 259.651C287.645 275.793 284.185 292.171 282.387 308.773C282.109 311.386 281.943 314.013 281.825 316.638C281.584 319.094 282.858 321.344 283.625 323.595C286.098 329.67 287.863 336.004 290.22 342.116C289.547 334.036 290.254 325.73 293.036 318.075C295.402 311.286 299.132 305.056 303.349 299.269C314.037 284.991 327.953 273.529 342.409 263.261C361.8 249.856 382.706 238.673 404.459 229.618C418.901 223.458 432.469 214.86 443.392 203.513L443.853 203.57C443.966 203.714 444.189 203.998 444.298 204.145C440.006 211.752 436.303 219.665 432.369 227.458C427.498 237.525 422.816 247.687 418.239 257.895C416.224 262.441 414.038 266.945 411.22 271.054C405.351 279.931 397.141 287.007 388.131 292.556C373.876 301.269 358.862 308.649 344.273 316.779C336.461 321.199 328.898 326.274 322.66 332.79C317.403 338.171 313.211 344.591 310.398 351.572C307.627 358.36 305.8 365.513 304.736 372.766C303.904 378.817 303.468 385.01 304.379 391.078C308.104 405.773 311.251 420.62 313.431 435.625C313.798 438.826 314.466 442.018 314.61 445.231C314.376 445.319 313.907 445.496 313.678 445.588L313.32 445.315C311.559 432.74 309.491 420.192 306.641 407.814C303.932 395.59 300.836 383.462 297.423 371.422C294.848 361.426 291.631 351.616 288.541 341.775C285.735 332.694 282.382 323.8 278.978 314.931C277.652 310.925 275.898 307.039 275.175 302.851C274.002 300.994 273.279 298.916 272.521 296.872C272.246 297.856 273.014 298.67 273.266 299.57C274.911 305.044 276.831 310.435 278.433 315.929C281.083 323.555 283.595 331.229 285.811 338.997C290.289 352.876 292.762 367.279 295.883 381.498C298.714 395.276 302.137 408.947 304.049 422.898C305.01 429.671 305.585 436.499 305.824 443.33C305.857 445.498 306.041 447.68 305.771 449.844C305.138 449.868 304.369 449.788 304.493 448.972C304.449 434.812 302.665 420.689 299.787 406.84C296.443 401.479 290.968 397.823 285.306 395.238C281.596 393.661 277.509 394.273 273.622 394.519C265.528 395.283 257.663 397.483 249.903 399.814C229.768 406.179 210.228 414.243 190.251 421.052C180.337 424.477 169.916 426.468 159.427 426.739C141.529 427.265 123.77 423.544 106.806 418.072C97.6893 415.027 88.7423 411.442 80.1765 407.076C72.3302 403.103 64.84 398.346 58.2471 392.507C57.7023 391.987 56.6599 391.087 57.9351 390.716C64.9126 393.843 72.8321 394.475 80.3501 393.384C85.0271 392.757 89.1882 390.392 93.5513 388.77C102.992 385.037 112.904 382.705 122.815 380.607C140.955 376.965 159.289 374.092 177.758 372.791C187.118 372.107 196.553 372.375 205.833 373.842C215.409 375.345 224.898 377.356 234.44 379.052C241.401 380.321 248.512 381.285 255.056 384.123C268.696 388.638 283.051 390.255 296.931 393.841C293.823 386.498 289.801 379.585 286.448 372.353C285.825 372.53 285.123 372.682 284.618 372.167C271.279 363.084 256.308 356.653 240.982 351.743C223.561 346.316 205.666 342.584 187.753 339.178C151.757 332.612 115.439 328.037 79.1711 323.304C70.1351 322.142 61.0937 321.05 52.0336 320.143C39.9702 318.939 28.4035 313.719 19.4007 305.605C15.5853 302.082 11.0987 299.445 6.8297 296.535C6.96505 296.268 7.24158 295.732 7.37526 295.466C17.2303 300.782 28.1007 304.829 39.411 305.169C49.4946 305.665 59.5462 304.557 69.5712 303.623C79.5979 302.616 89.6347 301.665 99.6899 300.999C108.676 300.418 117.661 301.286 126.593 302.226C140.646 303.69 154.533 306.352 168.383 309.055C166.431 308.243 164.345 307.812 162.328 307.201C155.116 305.013 147.9 302.791 140.539 301.143C123.885 297.331 107.286 293.285 90.7586 288.969C80.2131 286.209 69.7364 283.155 59.4576 279.52C39.6586 272.623 20.9469 261.985 6.05023 247.096C5.10019 246.04 3.7415 245.221 3.23272 243.847C3.40445 243.746 3.74867 243.53 3.92089 243.426C10.2079 246.089 17.0692 246.829 23.7873 247.632C33.4775 248.494 43.2121 248.606 52.9289 248.862C74.8093 249.366 96.7238 249.56 118.54 251.487C128.031 252.392 137.515 253.655 146.789 255.933C163.439 260.075 178.847 268.007 193.423 276.893C198.361 280.037 203.428 283.013 208.108 286.551C201.181 280.593 193.779 275.199 186.706 269.418C169.01 255.47 151.34 241.481 133.032 228.346C116.138 216.24 98.9313 204.535 81.0089 193.999C63.5916 183.681 47.4237 171.29 32.7268 157.374C20.9934 146.454 10.2603 134.493 0.000778664 122.201C0.0681665 121.527 0.73408 121.145 1.24697 121.692C10.0211 126.856 19.4588 130.721 28.7774 134.776C54.6444 145.575 80.2804 157.183 104.245 171.809C121.624 182.27 138.037 194.294 153.473 207.444C171.032 222.291 187.536 238.325 203.817 254.553C223.674 274.393 243.1 294.665 262.072 315.351C261.683 313.264 260.828 311.309 260.185 309.295C259.706 307.444 258.191 306.172 257.065 304.716C242.809 288.698 226.918 274.115 213.922 256.989C208.256 249.507 203.129 241.608 198.599 233.382C192.324 221.683 187.196 209.421 182.245 197.114C174.551 178.168 168.266 158.616 164.195 138.562C160.035 118.283 158.045 97.5456 158.534 76.8442C158.914 58.699 161.492 40.7059 164.033 22.7684C164.909 15.7927 165.852 8.82197 166.602 1.83245ZM160.233 72.0123C158.445 112.808 166.686 153.644 181.59 191.54C186.054 202.899 190.716 214.19 196.019 225.191C205.61 245.129 219.211 262.871 234.401 278.86C241.748 286.322 249.112 293.77 256.134 301.544C256.728 302.265 257.242 303.046 257.772 303.827C256.838 301.106 255.815 298.401 255.255 295.574C254.832 292.974 252.949 291.003 251.713 288.776C246.446 280.766 240.312 273.373 234.94 265.437C222.522 247.452 212.819 227.737 204.516 207.561C200.468 197.79 197.163 187.73 194.553 177.484C188.912 155.511 179.948 134.537 174.468 112.52C171.845 101.438 170.216 90.1395 169.209 78.8095C167.459 60.4345 167.812 41.9658 167.844 23.5362C167.873 18.79 168.19 14.0006 167.355 9.29805C164.675 30.1557 161.007 50.9521 160.233 72.0123ZM169.634 63.8284C170.593 83.5943 172.727 103.471 178.472 122.475C184.477 142.017 192.069 161.073 196.899 180.968C200.139 193.186 204.78 204.984 209.816 216.557C214.989 228.201 220.478 239.735 226.943 250.729C231.819 258.994 237.384 266.832 243.122 274.521C246.209 278.753 249.535 282.813 252.375 287.223C251.919 284.987 250.911 282.922 250.206 280.767C243.042 261.549 238.927 241.368 232.049 222.052C225.065 202.418 216.59 183.365 208.526 164.162C205.961 157.596 203.893 150.859 201.745 144.149C195.031 122.532 188.825 100.762 182.791 78.9515C177.772 60.5597 173.056 42.058 169.644 23.2993C169.558 23.0787 169.379 22.6384 169.29 22.4211C169.343 36.2185 169.027 50.0303 169.634 63.8284ZM4.53283 125.247C10.4564 128.38 15.6022 132.706 20.9671 136.669C35.658 147.848 50.2418 159.322 66.3689 168.404C69.8307 170.344 73.4439 172.014 77.1872 173.346C82.261 175.184 87.0547 177.698 91.6806 180.464C100.523 185.742 109.18 191.349 117.42 197.534C150.617 223.029 181.592 251.247 212.369 279.576C227.594 293.757 242.936 307.815 257.881 322.298C261.54 325.737 264.927 329.471 268.656 332.828C267.022 329.194 265.693 325.425 264.585 321.596C264.006 319.298 262.144 317.711 260.677 315.966C247.314 301.366 233.703 286.988 219.87 272.836C189.808 242.248 159.46 211.49 124.248 186.746C105.417 173.519 85.336 162.112 64.5802 152.201C47.7541 144.14 30.4827 137.061 13.4662 129.42C10.3741 128.273 7.58871 126.481 4.53283 125.247ZM65.0688 181.911C75.6203 189.449 87.0618 195.607 97.8839 202.728C132.299 224.896 164.695 250 196.678 275.498C205.323 282.248 214.067 288.868 222.492 295.892C229.163 301.479 235.846 307.054 242.522 312.644C250.551 319.37 258.318 326.413 266.208 333.299C267.692 334.679 269.073 336.225 270.879 337.198C268.166 334.251 265.274 331.477 262.397 328.701C246.541 313.048 230.116 297.984 213.789 282.827C183.781 255.274 153.689 227.719 121.613 202.557C114.539 196.871 107.097 191.658 99.3985 186.85C92.0616 182.25 84.7279 177.46 76.5314 174.512C69.0899 171.948 62.3538 167.778 55.7441 163.589C41.6043 154.493 28.4814 143.943 15.1074 133.785C12.3926 131.914 9.87951 129.73 6.91261 128.249C24.3254 148.108 43.3533 166.766 65.0688 181.911ZM272.957 50.9686C272.464 54.5368 272.239 58.1329 271.762 61.7027C269.664 80.4709 265.81 98.9786 262.255 117.507C259.102 134.368 256.046 151.255 253.712 168.255C251.04 188.044 249.391 207.994 249.416 227.975C249.488 247.552 250.835 267.224 255.008 286.389C255.665 289.224 256.231 292.115 257.5 294.762C260.526 301.273 263.929 307.606 266.862 314.165C267.705 315.914 268.669 317.603 269.704 319.248C267.881 311.166 265.926 303.093 264.895 294.862C263.524 284.436 262.988 273.925 262.567 263.426C261.839 242.714 262.171 221.981 262.949 201.275C264.285 165.833 268.68 130.613 272.01 95.3282C272.853 85.1211 273.698 74.8957 273.537 64.6494C273.389 60.0853 273.056 55.5327 272.957 50.9686ZM274.749 73.4782C274.59 82.415 273.779 91.3217 273.041 100.23C271.484 117.256 269.547 134.243 267.989 151.268C264.365 189.038 262.962 227.029 264.12 264.957C264.944 283.78 266.257 302.839 271.989 320.908C274.483 328.781 277.506 336.489 280.951 343.999C282.451 346.656 283.194 349.65 284.619 352.346C286.83 356.441 288.364 360.863 290.666 364.914C290.524 362.544 289.748 360.269 289.384 357.934C288.353 351.945 286.667 346.087 284.66 340.362C282.598 335.434 280.764 330.412 279.01 325.37C276.136 316.826 273.216 308.214 272.063 299.236C271.318 293.657 268.976 288.477 267.782 283.004C264.743 270.042 264.787 256.456 267.242 243.402C268.698 234.863 270.822 226.436 273.693 218.263C274.263 216.648 274.686 214.978 274.804 213.27C275.222 207.897 275.526 202.517 275.79 197.139C276.488 178.49 276.957 159.823 276.993 141.156C277.115 121.403 276.761 101.642 275.4 81.9284C275.196 79.1132 275.203 76.2741 274.749 73.4782ZM50.3727 274.57C60.458 278.743 70.9087 281.963 81.3882 284.977C99.2693 289.891 117.32 294.156 135.347 298.478C140.38 299.692 145.48 300.617 150.432 302.153C154.762 303.372 159.062 304.712 163.357 306.056C171.37 308.294 179.224 311.053 187.137 313.606C196.246 316.502 205.557 318.757 214.557 322.012C233.933 328.703 252.717 337.36 269.853 348.665C271.772 349.913 273.525 351.413 275.589 352.435C271.389 348.947 266.67 346.154 262.289 342.909C246.339 332.148 229.504 322.734 212.117 314.515C202.197 309.809 192.149 305.373 182.319 300.473C173.744 296.256 165.372 291.636 157.07 286.907C150.707 283.278 144.209 279.845 137.388 277.149C127.039 272.967 116.12 270.455 105.165 268.479C85.4128 264.943 65.5544 261.888 46.0152 257.274C32.8 254.222 19.7796 250.38 6.91394 246.098C19.3669 258.309 34.2561 267.95 50.3727 274.57ZM18.4271 248.421C43.1493 256.134 68.6771 260.853 94.1892 265.095C111.272 267.974 128.642 270.999 144.354 278.651C153.128 282.745 161.325 287.928 169.885 292.434C188.338 302.576 207.957 310.365 226.619 320.099C242.686 328.573 258.279 338.016 272.899 348.819C274.268 349.743 275.294 351.101 276.722 351.948C275.152 348.248 273.338 344.651 271.906 340.896C270.607 339.456 269.162 338.153 267.787 336.789C245.322 316.154 221.852 296.406 196.001 280.106C181.58 271.113 166.393 262.951 149.946 258.343C139.487 255.394 128.675 253.913 117.872 252.903C99.4047 251.265 80.8543 250.934 62.332 250.456C47.6878 250.072 33.0059 250.011 18.4271 248.421ZM353.438 99.3839C348.913 107.595 342.484 114.543 336.025 121.257C323.74 133.721 310.637 145.661 301.006 160.422C295.853 168.065 291.785 176.378 288.005 184.775C284.955 191.711 282.036 198.715 279.57 205.879C277.872 210.639 275.918 215.352 275.026 220.354C274.371 223.887 273.73 227.428 272.99 230.946C269.416 249.918 268.83 269.48 271.497 288.612C272.102 293.367 273.78 297.873 275.274 302.399C275.261 300.034 275.212 297.673 275.317 295.309C276.018 274.884 279.049 254.557 283.983 234.731C287.815 219.425 292.961 204.429 299.458 190.048C310.692 165.341 327.73 144.011 343.217 121.928C347.751 115.136 352.298 108.22 355.069 100.483C356.047 98.0382 356.615 95.4147 356.505 92.7726C355.434 94.9535 354.644 97.2661 353.438 99.3839ZM339.235 130.015C328.771 144.563 318.037 158.97 309.109 174.537C300.247 189.766 293.929 206.319 288.796 223.129C283.09 242.285 279.354 262.02 277.563 281.924C277.015 289.349 276.128 296.845 277.117 304.277C277.796 308.047 279.111 311.682 280.489 315.248C280.578 310.916 281.26 306.628 281.72 302.326C284.097 283.988 288.362 265.938 293.56 248.208C298.448 231.527 304.496 215.192 311.439 199.265C313.786 193.62 317.672 188.848 320.996 183.775C329.742 171.216 337.372 157.865 343.385 143.78C349.136 130.391 353.673 116.418 356.057 102.022C351.662 112.027 345.605 121.172 339.235 130.015ZM17.5316 301.872C21.3903 303.895 25.2038 306.032 29.326 307.494C47.8284 314.842 68.0549 315.249 87.6845 315.493C104.996 315.582 122.332 315.61 139.583 317.181C159.524 318.942 179.327 322.344 198.697 327.429C215.499 331.826 232.022 337.449 247.687 344.999C257.303 349.329 266.156 355.226 274.199 362.031C276.769 364.285 279.096 366.881 282.087 368.602C283.461 369.363 284.78 370.21 286.078 371.093C285.156 369.839 284.62 368.372 283.837 367.058C270.463 355.835 255.846 346.131 240.711 337.448C225.809 328.921 209.737 322.692 193.457 317.37C185.325 314.742 176.994 312.802 168.696 310.79C150.8 306.718 132.629 303.767 114.318 302.446C105.587 301.747 96.8443 302.716 88.1418 303.393C76.9347 304.307 65.7584 305.609 54.5346 306.35C44.5474 306.894 34.3345 306.954 24.6435 304.153C22.2134 303.577 19.9647 302.434 17.5316 301.872ZM21.2222 305.477C29.9116 312.524 40.4984 317.533 51.6987 318.71C68.8072 320.368 85.8249 322.822 102.885 324.961C120.622 327.37 138.376 329.653 156.064 332.398C174.56 335.274 193.04 338.348 211.289 342.528C228.975 346.509 246.61 351.241 263.182 358.706C267.089 360.498 271.083 362.142 274.751 364.406C270.033 360.133 264.856 356.373 259.537 352.894C251.15 347.495 241.991 343.475 232.756 339.78C207.86 330.087 181.718 323.779 155.255 320.265C136.316 317.693 117.183 316.986 98.0874 316.921C79.651 316.701 60.9843 316.947 42.8934 312.852C35.4592 311.095 28.1468 308.711 21.2222 305.477ZM270.609 234.509C268.102 244.689 266.556 255.19 267.075 265.696C267.194 271.043 267.728 276.412 269.138 281.59C268.077 268.635 268.148 255.57 269.701 242.665C270.255 239.165 270.495 235.593 271.546 232.197C270.764 232.695 270.855 233.723 270.609 234.509ZM64.013 395.515C71.4493 401.164 79.7814 405.491 88.2601 409.341C97.2496 413.266 106.479 416.662 115.929 419.316C132.364 423.952 149.59 426.629 166.673 424.935C175.617 423.996 184.405 421.849 192.839 418.763C212.022 412.021 230.898 404.41 250.284 398.271C259.309 395.497 268.57 393.165 278.053 392.883C274.768 391.842 271.295 391.533 267.894 391.043C250.321 389.188 232.524 389.73 215.04 392.237C185.495 396.231 156.077 401.544 126.282 403.424C116.628 403.979 106.932 404.368 97.2725 403.598C87.4389 402.944 77.7095 400.849 68.4573 397.459C66.9282 396.917 65.5871 395.945 64.013 395.515ZM66.4174 394.894C75.9944 399.541 86.6296 401.621 97.2072 402.233C116.773 403.331 136.345 401.416 155.759 399.173C176.62 396.755 197.283 392.977 218.094 390.218C236.063 388.164 254.274 387.963 272.255 390.009C265.495 388.474 258.709 386.902 252.237 384.388C247.802 382.73 243.114 381.943 238.479 381.084C231.366 379.863 224.262 378.544 217.171 377.189C208.235 375.517 199.227 373.963 190.116 373.808C178.007 373.619 165.962 375.096 153.978 376.663C144.16 378.115 134.348 379.647 124.622 381.638C114.03 383.793 103.433 386.252 93.3836 390.302C89.1413 391.926 85.0371 394.093 80.4868 394.743C75.8328 395.603 71.1015 395.057 66.4174 394.894ZM212.309 322.726C215.434 324.101 218.698 325.125 221.799 326.562C239.959 334.733 256.965 345.279 273.119 356.884C276.297 359.149 279.199 361.812 282.376 364.053C280.693 361.23 280.297 357.416 277.355 355.513C272.916 352.329 268.437 349.193 263.85 346.223C260.896 344.597 258.069 342.752 255.106 341.157C241.52 333.557 227.137 327.434 212.309 322.726ZM258.464 300.562L258.871 300.355C259.649 304.715 261.443 308.972 264.706 312.06C262.654 307.818 260.512 303.617 258.608 299.307C258.559 299.724 258.529 300.142 258.464 300.562ZM349.428 260.176C335.121 269.72 321.354 280.356 309.938 293.298C303.483 300.764 297.742 309.06 294.406 318.417C291.929 325.067 291.279 332.237 291.452 339.292C291.587 342.818 291.469 346.42 292.583 349.818C294.836 357.41 297.501 364.888 299.25 372.625C300.72 360.193 304.183 348.056 308.852 336.465C314.069 324.175 320.192 312.111 328.591 301.656C334.82 294.294 342.341 288.148 350.025 282.378C362.634 272.882 376.034 264.533 389.135 255.76C403.145 245.876 416.503 235.007 428.554 222.796C432.45 218.49 436.32 214.143 439.883 209.552C440.098 209.216 440.67 208.765 440.454 208.335C439.512 208.743 439.022 209.744 438.256 210.375C430.684 217.164 421.841 222.33 412.911 227.109C407.914 229.789 402.583 231.762 397.424 234.099C380.765 241.495 364.633 250.109 349.428 260.176ZM264.992 318.559C267.05 321.662 269.888 324.165 272.096 327.172C270.306 321.297 266.845 315.99 262.62 311.572C263.001 313.992 264.233 316.227 264.992 318.559ZM414.942 237.529C404.206 246.887 392.691 255.334 380.701 263.011C364.943 273.535 348.696 283.641 334.962 296.827C328.831 302.676 324.108 309.794 319.934 317.118C315.98 323.94 312.599 331.076 309.661 338.384C304.932 350.455 301.451 363.106 300.334 376.049C300.61 378.633 301.611 381.076 302.219 383.598C302.581 372.403 304.883 361.254 309.092 350.871C312.197 343.198 317.024 336.274 322.973 330.535C330.124 323.584 338.63 318.22 347.394 313.546C361.661 305.516 376.573 298.595 390.277 289.591C398.804 283.992 406.316 276.72 411.565 267.931C414.011 263.941 415.875 259.639 417.761 255.359C423.551 242.145 429.947 229.209 436.202 216.209C429.946 224.094 422.472 230.89 414.942 237.529ZM271.018 334.871C271.794 336.328 273.066 337.431 274.147 338.662C276.143 340.754 277.939 343.036 280.046 345.021C277.028 341.058 276.16 335.987 273.924 331.625C271.585 328.302 268.785 325.321 266.061 322.317C267.891 326.425 269.212 330.747 271.018 334.871ZM282.378 360.759C286.469 369.912 291.296 378.714 295.585 387.779C295.273 385.441 294.734 383.146 294.288 380.834C293.574 377.462 293.195 373.983 291.873 370.769C290.045 366.516 287.936 362.388 286.05 358.162C284.606 355.477 283.692 352.509 281.985 349.98C279.366 347.178 276.582 344.535 273.827 341.869C276.214 348.366 279.557 354.446 282.378 360.759ZM278.635 391.344C281.473 392.603 284.625 392.827 287.546 393.835C291.3 396.834 295.69 399.115 298.77 402.907C298.364 400.555 297.865 398.216 297.604 395.849C294.549 394.385 291.028 394.687 287.879 393.549C284.921 392.353 281.74 391.952 278.635 391.344Z" fill="#040404"/>
</svg>
