<svg width="339" height="582" viewBox="0 0 339 582" fill="none" xmlns="http://www.w3.org/2000/svg">
<g clip-path="url(#clip0_2968_866)">
<path d="M337.18 68.92H92.6499V0.859985H337.18" stroke="white" stroke-miterlimit="10"/>
<path d="M337.18 315.37H131.46V246.12H337.18" stroke="white" stroke-miterlimit="10"/>
<path d="M337.18 194.32H120.54L120.39 194.47L70.6898 244.12L70.5498 244.27V370.93H337.18" stroke="white" stroke-miterlimit="10"/>
<path d="M337.18 440.13H1.33984V215.62L91.8498 125.11H337.18V125.43" stroke="white" stroke-miterlimit="10"/>
<path d="M337.18 561.7H129.8V494.79H337.18" stroke="white" stroke-miterlimit="10"/>
<path d="M104.22 529.14C79.2101 532.36 59.3701 552.19 56.1601 577.2C52.9401 552.19 33.1101 532.35 8.1001 529.14C33.1101 525.92 52.9501 506.09 56.1601 481.08C59.3801 506.09 79.2101 525.93 104.22 529.14Z" stroke="white" stroke-miterlimit="10"/>
</g>
<defs>
<clipPath id="clip0_2968_866">
<rect width="338.52" height="581.78" fill="white"/>
</clipPath>
</defs>
</svg>
